<?xml version="1.0" encoding="UTF-8" standalone="no"?>
<!-- Created with Inkscape (http://www.inkscape.org/) -->

<svg
   width="135.2971mm"
   height="131.79541mm"
   viewBox="0 0 135.2971 131.79541"
   version="1.1"
   id="svg1"
   inkscape:version="1.3.2 (091e20e, 2023-11-25, custom)"
   sodipodi:docname="Template.svg"
   xml:space="preserve"
   xmlns:inkscape="http://www.inkscape.org/namespaces/inkscape"
   xmlns:sodipodi="http://sodipodi.sourceforge.net/DTD/sodipodi-0.dtd"
   xmlns="http://www.w3.org/2000/svg"
   xmlns:svg="http://www.w3.org/2000/svg"><sodipodi:namedview
     id="namedview1"
     pagecolor="#ffffff"
     bordercolor="#000000"
     borderopacity="0.25"
     inkscape:showpageshadow="2"
     inkscape:pageopacity="0.0"
     inkscape:pagecheckerboard="0"
     inkscape:deskcolor="#d1d1d1"
     inkscape:document-units="mm"
     showguides="true"
     inkscape:zoom="0.61463557"
     inkscape:cx="1000.5929"
     inkscape:cy="615.81206"
     inkscape:window-width="1920"
     inkscape:window-height="1057"
     inkscape:window-x="-8"
     inkscape:window-y="-8"
     inkscape:window-maximized="1"
     inkscape:current-layer="layer3"><sodipodi:guide
       position="-49.856117,929.32921"
       orientation="0,-1"
       id="guide38"
       inkscape:locked="false" /><sodipodi:guide
       position="170.57681,927.69202"
       orientation="1,0"
       id="guide39"
       inkscape:locked="false" /><sodipodi:guide
       position="-10.673257,850.05105"
       orientation="1,0"
       id="guide4"
       inkscape:locked="false" /><sodipodi:guide
       position="109.95177,894.65531"
       orientation="0,-1"
       id="guide5"
       inkscape:locked="false" /><sodipodi:guide
       position="-10.673257,923.53412"
       orientation="0,-1"
       id="guide16"
       inkscape:locked="false" /><sodipodi:guide
       position="117.78416,882.58295"
       orientation="0,-1"
       id="guide27"
       inkscape:locked="false" /><inkscape:page
       x="-3.7481124e-07"
       y="-4.4728658e-06"
       width="135.2971"
       height="131.79541"
       id="page2"
       margin="0"
       bleed="0" /></sodipodi:namedview><defs
     id="defs1" /><g
     inkscape:groupmode="layer"
     id="layer4"
     inkscape:label="Layer 1"
     transform="translate(-245.04823,-492.65602)"><path
       style="fill:#e39002;fill-opacity:1;stroke:none"
       d="m 265.51617,624.26019 c -5.12126,-0.74775 -10.15202,-3.36121 -13.79544,-7.16666 -2.85801,-2.98513 -4.74779,-6.37748 -6.00414,-10.77806 l -0.5725,-2.0053 -0.0718,-44.69972 c -0.0625,-38.89319 -0.0199,-45.00049 0.32777,-47.01513 1.65884,-9.61244 8.58083,-16.97806 18.30031,-19.47318 1.70075,-0.4366 4.80802,-0.46613 49.04391,-0.46613 44.23589,0 47.34317,0.0295 49.04391,0.46613 9.19312,2.35999 15.731,8.89787 18.09099,18.091 0.43629,1.69948 0.46614,4.7305 0.46614,47.32412 0,42.57241 -0.03,45.62531 -0.46556,47.32163 -1.22696,4.77889 -3.12485,8.12711 -6.5459,11.54816 -3.3696,3.3696 -6.61699,5.22959 -11.41122,6.53594 -1.56735,0.42707 -4.95369,0.46246 -48.25232,0.50415 -25.61166,0.0247 -47.28104,-0.0595 -48.15416,-0.18695 z m 84.51227,-37.95099 c 2.96045,-0.48011 6.37253,-1.56399 6.83512,-2.17123 0.38938,-0.51114 0.47909,-9.4705 0.0972,-9.70653 -0.12845,-0.0794 -0.89257,0.0824 -1.69806,0.35953 -3.73275,1.28426 -10.97701,1.77076 -14.07569,0.94529 -3.78251,-1.00764 -5.97302,-2.59182 -7.26643,-5.25508 -0.91106,-1.87599 -1.40113,-3.80051 -1.0267,-4.03192 0.13766,-0.0851 6.32067,-0.11414 13.74002,-0.0646 11.57302,0.0773 13.52349,0.0355 13.72728,-0.29396 0.39964,-0.64611 0.61822,-4.1944 0.45655,-7.41114 -0.38146,-7.58974 -3.90382,-13.65131 -9.58323,-16.49164 -3.08273,-1.5417 -4.93207,-1.90698 -9.65062,-1.90619 -4.97649,8.4e-4 -6.57781,0.3122 -9.7299,1.89189 -9.26071,4.64105 -13.98128,17.02971 -11.02399,28.93133 0.23504,0.94589 1.02655,2.9652 1.75892,4.48737 1.17533,2.4428 1.61506,3.04924 3.74714,5.16778 3.22572,3.20523 6.57139,4.90305 11.18906,5.67809 2.27949,0.38259 9.82909,0.3047 12.50334,-0.129 z m -17.13396,-29.2933 c 0.66862,-3.00518 2.39683,-5.3128 4.8259,-6.44385 1.64934,-0.76799 4.67802,-0.86501 6.5965,-0.21132 1.55278,0.52908 3.46444,2.3528 4.15503,3.96387 0.64443,1.50341 0.69798,3.4264 0.10178,3.65518 -0.23018,0.0883 -3.90846,0.1606 -8.17396,0.1606 h -7.75544 z m -59.1257,28.32338 c 0.11773,-0.17478 1.22609,-3.3597 2.46301,-7.07761 l 2.24896,-6.75983 10.49188,-0.0692 10.49188,-0.0692 0.52705,1.52437 c 0.28988,0.8384 1.31269,3.83314 2.2729,6.65498 0.96021,2.82184 1.8801,5.29238 2.04419,5.4901 0.23617,0.28457 1.61508,0.35949 6.61596,0.35949 6.15464,0 6.3176,-0.0137 6.3176,-0.53256 0,-0.87292 -20.42647,-57.77888 -20.87044,-58.14282 -0.31248,-0.25614 -2.15044,-0.31827 -7.82678,-0.26458 l -7.4184,0.0702 -0.29892,2.27278 c -0.24428,1.85726 -1.99351,7.12974 -9.56805,28.83958 -5.09801,14.61175 -9.29362,26.7454 -9.32357,26.96368 -0.14613,1.06506 -0.18305,1.05834 5.81346,1.05834 4.22271,0 5.86357,-0.0866 6.01927,-0.31777 z m 8.11826,-25.48774 c 0.0856,-0.22302 0.56664,-1.74107 1.06903,-3.37343 3.17199,-10.30655 4.69654,-15.42316 5.20333,-17.46316 0.31759,-1.27841 0.6087,-2.29044 0.64691,-2.24896 0.0382,0.0415 0.43414,1.39452 0.87986,3.00673 0.44573,1.61221 1.84265,6.19612 3.10428,10.18646 1.26163,3.99034 2.50598,7.93977 2.76523,8.77651 l 0.47135,1.52136 h -7.1478 c -6.3125,0 -7.12962,-0.0474 -6.99219,-0.40551 z"
       id="path1" /></g></svg>
