<?xml version="1.0" encoding="UTF-8" standalone="no"?>
<!-- Created with Inkscape (http://www.inkscape.org/) -->

<svg
   width="79.999962mm"
   height="65.0895mm"
   viewBox="0 0 79.999962 65.0895"
   version="1.1"
   id="svg1"
   inkscape:version="1.3.2 (091e20e, 2023-11-25, custom)"
   sodipodi:docname="Template.svg"
   xml:space="preserve"
   xmlns:inkscape="http://www.inkscape.org/namespaces/inkscape"
   xmlns:sodipodi="http://sodipodi.sourceforge.net/DTD/sodipodi-0.dtd"
   xmlns="http://www.w3.org/2000/svg"
   xmlns:svg="http://www.w3.org/2000/svg"><sodipodi:namedview
     id="namedview1"
     pagecolor="#ffffff"
     bordercolor="#000000"
     borderopacity="0.25"
     inkscape:showpageshadow="2"
     inkscape:pageopacity="0.0"
     inkscape:pagecheckerboard="0"
     inkscape:deskcolor="#d1d1d1"
     inkscape:document-units="mm"
     showguides="true"
     inkscape:zoom="0.86922596"
     inkscape:cx="354.33824"
     inkscape:cy="471.1088"
     inkscape:window-width="1920"
     inkscape:window-height="1057"
     inkscape:window-x="-8"
     inkscape:window-y="-8"
     inkscape:window-maximized="1"
     inkscape:current-layer="layer1" /><defs
     id="defs1" /><g
     inkscape:label="Camada 1"
     inkscape:groupmode="layer"
     id="layer1"
     transform="translate(320.0004,-825.89353)"><path
       d="m -240.23454,862.13968 c -0.46935,-3.30284 -1.6133,-6.43504 -3.40116,-9.30861 -1.55913,-2.50786 -3.55975,-4.7383 -5.94769,-6.63403 l 0.006,-0.006 -25.07937,-19.2624 a 0.71530086,0.71530086 0 0 0 -0.0565,-0.0449 c -0.83382,-0.63874 -1.96274,-0.99021 -3.1776,-0.99021 -1.21644,0 -2.38951,0.35225 -3.30144,0.99225 -0.98051,0.68493 -1.54097,1.59373 -1.58011,2.56108 -0.0358,0.90254 0.39467,1.77096 1.21549,2.4479 1.61409,1.27358 3.22457,2.57487 4.83725,3.87772 1.56508,1.26496 3.17775,2.56766 4.7826,3.83591 l -30.71817,-0.0208 c -3.51294,0 -5.90495,1.64962 -6.397,4.41141 -0.21621,1.20971 0.16532,2.5398 1.01823,3.5585 0.90489,1.07992 2.2187,1.67561 3.69925,1.67561 l 2.34175,10e-4 c 3.23506,0 6.48436,-0.008 9.72928,-0.0158 l 3.09447,-0.007 -27.87936,20.62584 -0.11068,0.0809 c -1.55725,1.19357 -2.57674,2.86699 -2.7967,4.59081 -0.16673,1.306 0.13792,2.49943 0.8814,3.45253 0.88611,1.13627 2.26958,1.76125 3.89588,1.76125 1.59765,0 3.22786,-0.6054 4.59239,-1.7077 l 15.05529,-12.32092 c -0.0643,0.60165 -0.14246,1.4843 -0.13354,2.12493 0.0169,1.01432 0.34254,3.04953 0.85808,4.70182 1.0652,3.39569 2.85948,6.50252 5.33274,9.23097 2.57346,2.83867 5.70769,5.08945 9.31504,6.68835 3.81368,1.68672 7.91339,2.54292 12.18563,2.54292 h 0.0396 c 4.28586,-0.0102 8.39856,-0.88015 12.22461,-2.58612 3.6133,-1.61785 6.74613,-3.87773 9.30988,-6.7159 2.47012,-2.7424 4.2619,-5.8544 5.32507,-9.24727 a 23.659254,23.659254 0 0 0 1.00445,-5.16679 c 0.13135,-1.69549 0.0748,-3.42073 -0.16548,-5.12765 z m -27.42581,16.27535 c -9.41539,0 -17.05059,-6.83005 -17.05059,-15.25586 0,-8.42486 7.63535,-15.25489 17.05059,-15.25489 9.41554,0 17.04996,6.83003 17.04996,15.25489 2.5e-4,8.42581 -7.63442,15.25586 -17.04996,15.25586 z m 9.83276,-16.59644 c 0.13887,2.51475 -0.86559,4.84977 -2.6295,6.5783 -1.79428,1.76093 -4.35458,2.86699 -7.21767,2.86699 -2.86183,0 -5.4226,-1.10606 -7.21751,-2.86699 -1.76312,-1.72853 -2.76554,-4.06324 -2.62746,-6.57626 0.13526,-2.44273 1.3268,-4.59897 3.12155,-6.1257 1.76485,-1.5012 4.13463,-2.41705 6.72327,-2.41705 2.58895,0 4.9581,0.91616 6.7231,2.41705 1.79569,1.52673 2.98755,3.6814 3.12422,6.12366 z"
       id="path1-7"
       style="fill:#e39002;fill-opacity:1;stroke-width:0.156556" /></g></svg>
