<?xml version="1.0" encoding="UTF-8" standalone="no"?>
<!-- Created with Inkscape (http://www.inkscape.org/) -->

<svg
   width="15.5mm"
   height="15.500006mm"
   viewBox="0 0 15.5 15.500006"
   version="1.1"
   id="svg1"
   inkscape:version="1.3.2 (091e20e, 2023-11-25, custom)"
   sodipodi:docname="Template.svg"
   xml:space="preserve"
   xmlns:inkscape="http://www.inkscape.org/namespaces/inkscape"
   xmlns:sodipodi="http://sodipodi.sourceforge.net/DTD/sodipodi-0.dtd"
   xmlns="http://www.w3.org/2000/svg"
   xmlns:svg="http://www.w3.org/2000/svg"><sodipodi:namedview
     id="namedview1"
     pagecolor="#ffffff"
     bordercolor="#000000"
     borderopacity="0.25"
     inkscape:showpageshadow="2"
     inkscape:pageopacity="0.0"
     inkscape:pagecheckerboard="0"
     inkscape:deskcolor="#d1d1d1"
     inkscape:document-units="mm"
     showguides="true"
     inkscape:zoom="0.61463557"
     inkscape:cx="1000.5929"
     inkscape:cy="615.81206"
     inkscape:window-width="1920"
     inkscape:window-height="1057"
     inkscape:window-x="-8"
     inkscape:window-y="-8"
     inkscape:window-maximized="1"
     inkscape:current-layer="layer3"><sodipodi:guide
       position="214.35238,621.83372"
       orientation="0,-1"
       id="guide38"
       inkscape:locked="false" /><sodipodi:guide
       position="434.78531,620.19653"
       orientation="1,0"
       id="guide39"
       inkscape:locked="false" /><sodipodi:guide
       position="253.53524,542.55556"
       orientation="1,0"
       id="guide4"
       inkscape:locked="false" /><sodipodi:guide
       position="374.16027,587.15982"
       orientation="0,-1"
       id="guide5"
       inkscape:locked="false" /><sodipodi:guide
       position="253.53524,616.03863"
       orientation="0,-1"
       id="guide16"
       inkscape:locked="false" /><sodipodi:guide
       position="381.99266,575.08746"
       orientation="0,-1"
       id="guide27"
       inkscape:locked="false" /><inkscape:page
       x="2.0217351e-05"
       y="-6.9124962e-06"
       width="15.5"
       height="15.500006"
       id="page2"
       margin="0"
       bleed="0" /></sodipodi:namedview><defs
     id="defs1" /><g
     inkscape:groupmode="layer"
     id="layer3"
     inkscape:label="About me"
     transform="translate(19.160269,-185.16053)"><g
       id="g42"
       inkscape:export-filename="..\..\Users\Five\Downloads\DaVinci Resolve.svg"
       inkscape:export-xdpi="96"
       inkscape:export-ydpi="96"><rect
         style="fill:none;stroke:#e39002;stroke-width:0.5;stroke-linejoin:round;stroke-dasharray:none;stroke-opacity:1;paint-order:markers fill stroke"
         id="rect42"
         width="15"
         height="15"
         x="-18.910284"
         y="185.41054"
         rx="1.4932041"
         ry="1.4932041" /><g
         id="g7572"
         transform="matrix(0.30090616,0,0,0.30090616,-21.03812,170.40332)"
         style="fill:#e39002;fill-opacity:1"><g
           id="g6236"
           transform="matrix(1.0324977,0,0,1.0324977,-1.0437923,44.339431)"
           style="fill:#e39002;fill-opacity:1"><g
             id="g6228"
             style="fill:#e39002;fill-opacity:1"><path
               style="mix-blend-mode:lighten;fill:#e39002;fill-opacity:1;fill-rule:nonzero"
               d="m 25.002653,20.382103 c -0.0196,0.514484 0.0718,1.076908 0.223374,1.639464 0.28878,1.070354 0.76738,2.051108 1.331754,2.977508 1.28567,2.106696 2.906202,3.910326 4.664468,5.584894 0.144,0.13766 0.315414,0.253896 0.498968,0.342532 0.18382,0.0956 0.367372,0.0956 0.557324,0.0136 0.18356,-0.08194 0.347788,-0.19858 0.485652,-0.350044 0.610196,-0.63085 1.213344,-1.262652 1.790902,-1.914668 0.813336,-0.9264 1.587896,-1.879432 2.28987,-2.901844 0.63683,-0.926264 1.20721,-1.900738 1.62667,-2.957296 0.419462,-1.050136 0.623384,-2.133326 0.485652,-3.272238 -0.22964,-1.879324 -0.99689,-3.471671 -2.368332,-4.720254 -1.621578,-1.473935 -3.510396,-2.064083 -5.636032,-1.735343 -3.45726,0.53579 -5.963586,3.719255 -5.95027,7.293465 z"
               id="path37" /><path
               style="display:inline;fill:#e39002;fill-opacity:1"
               d="m 42.894854,45.998033 c -0.435154,0.0132 -0.92375,-0.04062 -1.412214,-0.14436 -1.445174,-0.316356 -2.672642,-0.973434 -3.615956,-2.138388 -0.573684,-0.710394 -1.055976,-1.480258 -1.471696,-2.289948 -0.488728,-0.954048 -0.897096,-1.94805 -1.253202,-2.954234 -0.435154,-1.21709 -0.804654,-2.46077 -1.089068,-3.717812 -0.15796,-0.704236 0.0196,-1.145432 0.798484,-1.388038 0.989404,-0.309152 1.98616,-0.585556 3.00222,-0.80969 1.682184,-0.368624 3.377764,-0.605072 5.107218,-0.54678 0.488596,0.0196 0.976142,0.07204 1.458436,0.15758 1.398952,0.243786 2.58637,0.888682 3.55621,1.908228 1.656576,1.737144 2.31548,3.8099 1.90698,6.172554 -0.587076,3.376042 -3.582994,5.77747 -6.987412,5.750878 z"
               id="path39" /><path
               style="display:inline;fill:#e39002;fill-opacity:1"
               d="m 21.105156,45.998033 c 0.435154,0.0132 0.92375,-0.04062 1.412216,-0.14436 1.445174,-0.316356 2.67264,-0.973434 3.615954,-2.138388 0.573684,-0.710394 1.055978,-1.480258 1.471698,-2.289948 0.488728,-0.954048 0.897094,-1.94805 1.253202,-2.954234 0.435154,-1.21709 0.804652,-2.46077 1.089066,-3.717812 0.15796,-0.704236 -0.0196,-1.145432 -0.798484,-1.388038 -0.989404,-0.309152 -1.986162,-0.585556 -3.002218,-0.80969 -1.682186,-0.368624 -3.377764,-0.605072 -5.107218,-0.54678 -0.488596,0.0196 -0.976144,0.07204 -1.458436,0.15758 -1.398954,0.243786 -2.586371,0.888682 -3.55621,1.908228 -1.656578,1.737144 -2.315481,3.8099 -1.906982,6.172554 0.587077,3.376042 3.582994,5.77747 6.987412,5.750878 z"
               id="path33"
               sodipodi:nodetypes="cccccccccccccc" /></g></g></g></g></g></svg>
