<?xml version="1.0" encoding="UTF-8" standalone="no"?>
<!-- Created with Inkscape (http://www.inkscape.org/) -->

<svg
   width="80mm"
   height="79.99247mm"
   viewBox="0 0 80 79.99247"
   version="1.1"
   id="svg1"
   inkscape:version="1.3.2 (091e20e, 2023-11-25, custom)"
   sodipodi:docname="Template.svg"
   xml:space="preserve"
   xmlns:inkscape="http://www.inkscape.org/namespaces/inkscape"
   xmlns:sodipodi="http://sodipodi.sourceforge.net/DTD/sodipodi-0.dtd"
   xmlns="http://www.w3.org/2000/svg"
   xmlns:svg="http://www.w3.org/2000/svg"><sodipodi:namedview
     id="namedview1"
     pagecolor="#ffffff"
     bordercolor="#000000"
     borderopacity="0.25"
     inkscape:showpageshadow="2"
     inkscape:pageopacity="0.0"
     inkscape:pagecheckerboard="0"
     inkscape:deskcolor="#d1d1d1"
     inkscape:document-units="mm"
     showguides="true"
     inkscape:zoom="0.86922596"
     inkscape:cx="354.33824"
     inkscape:cy="471.1088"
     inkscape:window-width="1920"
     inkscape:window-height="1057"
     inkscape:window-x="-8"
     inkscape:window-y="-8"
     inkscape:window-maximized="1"
     inkscape:current-layer="layer1" /><defs
     id="defs1" /><g
     inkscape:label="Camada 1"
     inkscape:groupmode="layer"
     id="layer1"
     transform="translate(-121.44062,-818.44205)"><g
       style="fill:#e39002;fill-opacity:1"
       id="g1"
       transform="matrix(2.4999219,0,0,2.4999219,121.44061,818.44202)"><path
         d="M 26.531,25.599 20.803,16 26.531,6.401 29.334,16 Z M 13.864,24.667 6.667,17.599 h 11.469 l 5.728,9.599 z m 0,-17.47 10,-2.531 -5.728,9.599 H 6.531 c 0,0.136 7.333,-7.068 7.333,-7.068 z M 28.531,0 15.47,3.333 l -2,3.333 H 9.599 L 0,15.999 9.599,25.332 h 3.871 l 1.864,3.333 13.068,3.333 3.463,-12.667 -1.864,-3.333 2,-3.333 z"
         id="path1"
         style="fill:#e39002;fill-opacity:1" /></g></g></svg>
