<?xml version="1.0" encoding="UTF-8" standalone="no"?>
<!-- Created with Inkscape (http://www.inkscape.org/) -->

<svg
   width="79.999992mm"
   height="80.680801mm"
   viewBox="0 0 79.999992 80.680801"
   version="1.1"
   id="svg1"
   inkscape:version="1.3.2 (091e20e, 2023-11-25, custom)"
   sodipodi:docname="Template.svg"
   xml:space="preserve"
   xmlns:inkscape="http://www.inkscape.org/namespaces/inkscape"
   xmlns:sodipodi="http://sodipodi.sourceforge.net/DTD/sodipodi-0.dtd"
   xmlns="http://www.w3.org/2000/svg"
   xmlns:svg="http://www.w3.org/2000/svg"><sodipodi:namedview
     id="namedview1"
     pagecolor="#ffffff"
     bordercolor="#000000"
     borderopacity="0.25"
     inkscape:showpageshadow="2"
     inkscape:pageopacity="0.0"
     inkscape:pagecheckerboard="0"
     inkscape:deskcolor="#d1d1d1"
     inkscape:document-units="mm"
     showguides="true"
     inkscape:zoom="0.86922596"
     inkscape:cx="354.33824"
     inkscape:cy="471.1088"
     inkscape:window-width="1920"
     inkscape:window-height="1057"
     inkscape:window-x="-8"
     inkscape:window-y="-8"
     inkscape:window-maximized="1"
     inkscape:current-layer="layer1" /><defs
     id="defs1" /><g
     inkscape:label="Camada 1"
     inkscape:groupmode="layer"
     id="layer1"
     transform="translate(216.87494,-818.09788)"><g
       style="fill:#e39002;fill-opacity:1"
       id="g7"
       transform="matrix(2.5212732,0,0,2.5212732,-217.21532,818.0979)"><path
         d="M 16,0 C 7.234,0 0.135,7.161 0.135,16 c 0,8.839 7.099,16 15.865,16 8.76,0 15.865,-7.161 15.865,-16 0,-8.839 -7.104,-16 -15.87,-16 z m 0,0.703 c 4.047,0 7.859,1.594 10.724,4.479 2.859,2.875 4.453,6.766 4.443,10.818 0,4.083 -1.578,7.927 -4.443,10.818 C 23.896,29.688 20.031,31.302 16,31.297 11.969,31.302 8.104,29.688 5.276,26.818 2.417,23.943 0.818,20.052 0.828,16 0.828,11.917 2.411,8.073 5.271,5.182 8.099,2.307 11.969,0.692 16,0.703 Z m -0.797,5.63 c -2.583,0.693 -4.974,2.021 -8.161,5.677 -3.187,3.656 -2.583,6.677 -2.583,6.677 0,0 0.88,-2.078 2.995,-4.266 1.005,-1.036 1.75,-1.385 2.266,-1.385 0.458,-0.026 0.844,0.344 0.844,0.802 v 7.422 c 0,0.734 -0.474,0.896 -0.911,0.885 C 9.283,22.14 8.939,22.01 8.939,22.01 c 2.172,3.156 7.37,3.599 7.37,3.599 l 2.281,-2.438 0.052,0.047 2.089,1.781 c 3.823,-2.271 5.667,-6.479 5.667,-6.479 -1.708,1.802 -2.792,2.224 -3.438,2.224 -0.573,-0.005 -0.797,-0.339 -0.797,-0.339 -0.031,-0.156 -0.083,-2.417 -0.104,-4.677 -0.021,-2.339 0,-4.682 0.115,-4.688 C 22.835,9.8 24.94,7.3 24.94,7.3 c -3.932,0.776 -6.073,3.354 -6.073,3.354 -0.635,-0.5 -1.927,-0.417 -1.927,-0.417 0.604,0.333 1.208,1.302 1.208,2.104 v 7.896 c 0,0 -1.318,1.161 -2.333,1.161 -0.604,0 -0.974,-0.328 -1.177,-0.599 C 14.56,20.695 14.492,20.58 14.44,20.455 v -9.75 c -0.141,0.104 -0.313,0.161 -0.484,0.167 -0.219,0 -0.443,-0.109 -0.594,-0.427 -0.115,-0.24 -0.188,-0.599 -0.188,-1.125 0,-1.797 2.031,-2.99 2.031,-2.99 z"
         id="path1-8"
         style="fill:#e39002;fill-opacity:1" /></g></g></svg>
